<?xml version="1.0" encoding="UTF-8" ?>
<svg version="1.1" xmlns="http://www.w3.org/2000/svg" width="242" height="140">
<path
    d="M0 0 C4.29 0 8.58 0 13 0 C13.01981934 1.19077148 13.03963867 2.38154297 13.06005859 3.60839844 C13.13616995 8.02918532 13.22487894 12.44964543 13.31738281 16.87011719 C13.35564968 18.78281195 13.39050658 20.69557811 13.421875 22.60839844 C13.46757527 25.35898342 13.52556145 28.10907783 13.5859375 30.859375 C13.59748871 31.71368103 13.60903992 32.56798706 13.62094116 33.44818115 C13.64081085 34.24870911 13.66068054 35.04923706 13.68115234 35.87402344 C13.69447601 36.57573669 13.70779968 37.27744995 13.7215271 38.00042725 C14.04939952 40.35471294 14.77684801 41.96964742 16 44 C20.02195556 46.66146319 24.3362171 46.82302051 29 46 C32.57865851 43.31600612 34.18769376 41.33302437 35 37 C35.15110957 34.16611169 35.25631534 31.35139452 35.31640625 28.515625 C35.33718735 27.70003113 35.35796844 26.88443726 35.37937927 26.04412842 C35.44461297 23.44616895 35.50363768 20.84811087 35.5625 18.25 C35.60571014 16.485667 35.64932522 14.72134387 35.69335938 12.95703125 C35.80026745 8.63812116 35.90160827 4.31911216 36 0 C39.96 0 43.92 0 48 0 C48.12412058 6.11971742 48.21458556 12.23869311 48.2746582 18.359375 C48.29971505 20.43893202 48.33377021 22.51840174 48.37719727 24.59765625 C48.43823845 27.59657394 48.46629842 30.59432178 48.48828125 33.59375 C48.51408768 34.51490601 48.5398941 35.43606201 48.56648254 36.38513184 C48.5692534 42.84395072 47.08668907 46.97615446 43 52 C36.98384446 57.86189515 30.16135922 58.4537754 22.12182617 58.43164062 C15.92111687 58.25502688 10.90388433 57.00003114 6 53 C0.12081851 46.21843252 -0.14997789 39.36977661 -0.09765625 30.76171875 C-0.0962413 29.88095169 -0.09482635 29.00018463 -0.09336853 28.09272766 C-0.08778937 25.29094997 -0.07524071 22.48925338 -0.0625 19.6875 C-0.05748231 17.78320428 -0.05291987 15.87890731 -0.04882812 13.97460938 C-0.03782677 9.31637519 -0.02057649 4.65820133 0 0 Z "
    fill="#FABC04"
    transform="translate(115,43)"
  />
<path
    d="M0 0 C14.19 0 28.38 0 43 0 C43 11.20900322 43 11.20900322 38.875 15.9375 C37.96172393 17.02603592 37.051778 18.11737133 36.14453125 19.2109375 C35.64518066 19.80229492 35.14583008 20.39365234 34.63134766 21.00292969 C31.44772099 24.90027571 28.52613369 28.99706192 25.5625 33.0625 C24.37681056 34.67875856 23.1906408 36.29466491 22.00390625 37.91015625 C21.49674072 38.60246338 20.9895752 39.29477051 20.46704102 40.00805664 C18.98968328 42.014008 17.49476206 44.00698392 16 46 C29.86 46.495 29.86 46.495 44 47 C44 50.3 44 53.6 44 57 C29.15 57 14.3 57 -1 57 C-1 48.00287862 -1 48.00287862 1.60546875 44.6953125 C2.17120605 43.95514893 2.73694336 43.21498535 3.31982422 42.45239258 C3.93615723 41.68435303 4.55249023 40.91631348 5.1875 40.125 C6.46599462 38.46572988 7.74330743 36.80554859 9.01953125 35.14453125 C9.67646973 34.30100098 10.3334082 33.4574707 11.01025391 32.58837891 C14.22976267 28.4002523 17.29901017 24.1064752 20.375 19.8125 C22.23125 17.234375 24.0875 14.65625 26 12 C13.13 11.505 13.13 11.505 0 11 C0 7.37 0 3.74 0 0 Z "
    fill="#EA4234"
    transform="translate(64,43)"
  />
<path
    d="M0 0 C14.19 0 28.38 0 43 0 C43 10.12186151 43 10.12186151 40.39453125 13.40234375 C39.82879395 14.13928467 39.26305664 14.87622559 38.68017578 15.63549805 C38.06384277 16.39515869 37.44750977 17.15481934 36.8125 17.9375 C35.53394561 19.58760434 34.25663447 21.23867261 32.98046875 22.890625 C31.99506104 24.14649414 31.99506104 24.14649414 30.98974609 25.42773438 C27.75995671 29.60307928 24.69698854 33.89553515 21.625 38.1875 C19.76875 40.765625 17.9125 43.34375 16 46 C29.365 46.495 29.365 46.495 43 47 C43 50.3 43 53.6 43 57 C28.48 57 13.96 57 -1 57 C-1 46.87835325 -1 46.87835325 2.1484375 43.01953125 C2.8199585 42.17165039 3.49147949 41.32376953 4.18334961 40.45019531 C4.90659424 39.57975586 5.62983887 38.70931641 6.375 37.8125 C7.84413499 35.97139704 9.31158063 34.1289448 10.77734375 32.28515625 C11.49776855 31.39070801 12.21819336 30.49625977 12.96044922 29.57470703 C15.74879271 26.05473211 18.362463 22.42757565 20.9375 18.75 C24.92325949 13.07674051 24.92325949 13.07674051 26 12 C13.13 11.505 13.13 11.505 0 11 C0 7.37 0 3.74 0 0 Z "
    fill="#4184F3"
    transform="translate(14,43)"
  />
<path
    d="M0 0 C3.96 0 7.92 0 12 0 C12 15.51 12 31.02 12 47 C20.25 47 28.5 47 37 47 C37 50.3 37 53.6 37 57 C24.79 57 12.58 57 0 57 C0 38.19 0 19.38 0 0 Z "
    fill="#4284F3"
    transform="translate(172,43)"
  />
<path
    d="M0 0 C4.29 0 8.58 0 13 0 C13 18.81 13 37.62 13 57 C8.71 57 4.42 57 0 57 C0 38.19 0 19.38 0 0 Z "
    fill="#33A851"
    transform="translate(215,43)"
  />
</svg>
